solid GRILL-TOP-LASER-JIG-160808_∆–≈œ
   facet normal -1.861558e-001 -2.278409e-001 9.557377e-001
      outer loop
         vertex 5.620976e+001 1.011808e+002 5.625336e+001
         vertex 5.628186e+001 1.007915e+002 5.617464e+001
         vertex 5.770632e+001 1.010553e+002 5.651363e+001
      endloop
   endfacet
   facet normal -1.774843e-001 -2.260274e-001 9.578157e-001
      outer loop
         vertex 6.113528e+001 1.020930e+002 5.740574e+001
         vertex 6.106318e+001 1.024824e+002 5.748433e+001
         vertex 5.963580e+001 1.022181e+002 5.715609e+001
      endloop
   endfacet
   facet normal -1.757471e-001 -2.262006e-001 9.580951e-001
      outer loop
         vertex 6.152217e+001 1.021774e+002 5.749668e+001
         vertex 6.150753e+001 1.022282e+002 5.750600e+001
         vertex 6.113528e+001 1.020930e+002 5.740574e+001
      endloop
   endfacet
   facet normal -1.757736e-001 -2.261499e-001 9.581022e-001
      outer loop
         vertex 6.113528e+001 1.020930e+002 5.740574e+001
         vertex 6.150753e+001 1.022282e+002 5.750600e+001
         vertex 6.148668e+001 1.022756e+002 5.751337e+001
      endloop
   endfacet
   facet normal -1.758095e-001 -2.261021e-001 9.581069e-001
      outer loop
         vertex 6.113528e+001 1.020930e+002 5.740574e+001
         vertex 6.148668e+001 1.022756e+002 5.751337e+001
         vertex 6.145935e+001 1.023206e+002 5.751897e+001
      endloop
   endfacet
   facet normal -1.758543e-001 -2.260576e-001 9.581092e-001
      outer loop
         vertex 6.145935e+001 1.023206e+002 5.751897e+001
         vertex 6.142653e+001 1.023614e+002 5.752258e+001
         vertex 6.113528e+001 1.020930e+002 5.740574e+001
      endloop
   endfacet
   facet normal -1.759025e-001 -2.260202e-001 9.581092e-001
      outer loop
         vertex 6.113528e+001 1.020930e+002 5.740574e+001
         vertex 6.142653e+001 1.023614e+002 5.752258e+001
         vertex 6.139463e+001 1.023923e+002 5.752402e+001
      endloop
   endfacet
   facet normal -1.759572e-001 -2.259876e-001 9.581068e-001
      outer loop
         vertex 6.113528e+001 1.020930e+002 5.740574e+001
         vertex 6.139463e+001 1.023923e+002 5.752402e+001
         vertex 6.135311e+001 1.024237e+002 5.752380e+001
      endloop
   endfacet
   facet normal -1.760218e-001 -2.259574e-001 9.581020e-001
      outer loop
         vertex 6.135311e+001 1.024237e+002 5.752380e+001
         vertex 6.130793e+001 1.024495e+002 5.752158e+001
         vertex 6.113528e+001 1.020930e+002 5.740574e+001
      endloop
   endfacet
   facet normal -1.760911e-001 -2.259334e-001 9.580950e-001
      outer loop
         vertex 6.113528e+001 1.020930e+002 5.740574e+001
         vertex 6.130793e+001 1.024495e+002 5.752158e+001
         vertex 6.126014e+001 1.024689e+002 5.751737e+001
      endloop
   endfacet
   facet normal -1.761645e-001 -2.259158e-001 9.580857e-001
      outer loop
         vertex 6.113528e+001 1.020930e+002 5.740574e+001
         vertex 6.126014e+001 1.024689e+002 5.751737e+001
         vertex 6.120951e+001 1.024820e+002 5.751116e+001
      endloop
   endfacet
   facet normal -1.762404e-001 -2.259048e-001 9.580743e-001
      outer loop
         vertex 6.120951e+001 1.024820e+002 5.751116e+001
         vertex 6.115824e+001 1.024884e+002 5.750324e+001
         vertex 6.113528e+001 1.020930e+002 5.740574e+001
      endloop
   endfacet
   facet normal -1.763172e-001 -2.259007e-001 9.580611e-001
      outer loop
         vertex 6.113528e+001 1.020930e+002 5.740574e+001
         vertex 6.115824e+001 1.024884e+002 5.750324e+001
         vertex 6.110638e+001 1.024880e+002 5.749361e+001
      endloop
   endfacet
   facet normal -1.763881e-001 -2.259029e-001 9.580476e-001
      outer loop
         vertex 6.113528e+001 1.020930e+002 5.740574e+001
         vertex 6.110638e+001 1.024880e+002 5.749361e+001
         vertex 6.106318e+001 1.024824e+002 5.748433e+001
      endloop
   endfacet
   facet normal -1.760225e-001 -2.266619e-001 9.579355e-001
      outer loop
         vertex 6.130711e+001 1.017362e+002 5.735294e+001
         vertex 6.135295e+001 1.017623e+002 5.736752e+001
         vertex 6.113528e+001 1.020930e+002 5.740574e+001
      endloop
   endfacet
   facet normal -1.760929e-001 -2.266844e-001 9.579173e-001
      outer loop
         vertex 6.130711e+001 1.017362e+002 5.735294e+001
         vertex 6.113528e+001 1.020930e+002 5.740574e+001
         vertex 6.125857e+001 1.017167e+002 5.733939e+001
      endloop
   endfacet
   facet normal -1.759572e-001 -2.266332e-001 9.579543e-001
      outer loop
         vertex 6.135295e+001 1.017623e+002 5.736752e+001
         vertex 6.139483e+001 1.017939e+002 5.738270e+001
         vertex 6.113528e+001 1.020930e+002 5.740574e+001
      endloop
   endfacet
   facet normal -1.758981e-001 -2.265987e-001 9.579733e-001
      outer loop
         vertex 6.113528e+001 1.020930e+002 5.740574e+001
         vertex 6.139483e+001 1.017939e+002 5.738270e+001
         vertex 6.143221e+001 1.018310e+002 5.739833e+001
      endloop
   endfacet
   facet normal -1.758462e-001 -2.265588e-001 9.579923e-001
      outer loop
         vertex 6.113528e+001 1.020930e+002 5.740574e+001
         vertex 6.143221e+001 1.018310e+002 5.739833e+001
         vertex 6.146455e+001 1.018731e+002 5.741423e+001
      endloop
   endfacet
   facet normal -1.758023e-001 -2.265142e-001 9.580109e-001
      outer loop
         vertex 6.146455e+001 1.018731e+002 5.741423e+001
         vertex 6.149108e+001 1.019191e+002 5.742997e+001
         vertex 6.113528e+001 1.020930e+002 5.740574e+001
      endloop
   endfacet
   facet normal -1.757677e-001 -2.264661e-001 9.580286e-001
      outer loop
         vertex 6.113528e+001 1.020930e+002 5.740574e+001
         vertex 6.149108e+001 1.019191e+002 5.742997e+001
         vertex 6.151099e+001 1.019679e+002 5.744515e+001
      endloop
   endfacet
   facet normal -1.757429e-001 -2.264149e-001 9.580452e-001
      outer loop
         vertex 6.113528e+001 1.020930e+002 5.740574e+001
         vertex 6.151099e+001 1.019679e+002 5.744515e+001
         vertex 6.152436e+001 1.020195e+002 5.745979e+001
      endloop
   endfacet
   facet normal -1.757282e-001 -2.263616e-001 9.580606e-001
      outer loop
         vertex 6.152436e+001 1.020195e+002 5.745979e+001
         vertex 6.153077e+001 1.020724e+002 5.747347e+001
         vertex 6.113528e+001 1.020930e+002 5.740574e+001
      endloop
   endfacet
   facet normal -1.757240e-001 -2.263077e-001 9.580740e-001
      outer loop
         vertex 6.113528e+001 1.020930e+002 5.740574e+001
         vertex 6.153077e+001 1.020724e+002 5.747347e+001
         vertex 6.152999e+001 1.021248e+002 5.748570e+001
      endloop
   endfacet
   facet normal -1.757304e-001 -2.262538e-001 9.580856e-001
      outer loop
         vertex 6.113528e+001 1.020930e+002 5.740574e+001
         vertex 6.152999e+001 1.021248e+002 5.748570e+001
         vertex 6.152217e+001 1.021774e+002 5.749668e+001
      endloop
   endfacet
   facet normal -1.878902e-001 -2.276654e-001 9.554400e-001
      outer loop
         vertex 5.582286e+001 1.010965e+002 5.615725e+001
         vertex 5.583749e+001 1.010457e+002 5.614801e+001
         vertex 5.620976e+001 1.011808e+002 5.625336e+001
      endloop
   endfacet
   facet normal -1.878638e-001 -2.277160e-001 9.554332e-001
      outer loop
         vertex 5.620976e+001 1.011808e+002 5.625336e+001
         vertex 5.583749e+001 1.010457e+002 5.614801e+001
         vertex 5.585830e+001 1.009984e+002 5.614083e+001
      endloop
   endfacet
   facet normal -1.878280e-001 -2.277638e-001 9.554288e-001
      outer loop
         vertex 5.620976e+001 1.011808e+002 5.625336e+001
         vertex 5.585830e+001 1.009984e+002 5.614083e+001
         vertex 5.588557e+001 1.009534e+002 5.613548e+001
      endloop
   endfacet
   facet normal -1.877833e-001 -2.278083e-001 9.554271e-001
      outer loop
         vertex 5.588557e+001 1.009534e+002 5.613548e+001
         vertex 5.591833e+001 1.009126e+002 5.613220e+001
         vertex 5.620976e+001 1.011808e+002 5.625336e+001
      endloop
   endfacet
   facet normal -1.877350e-001 -2.278458e-001 9.554276e-001
      outer loop
         vertex 5.620976e+001 1.011808e+002 5.625336e+001
         vertex 5.591833e+001 1.009126e+002 5.613220e+001
         vertex 5.595039e+001 1.008816e+002 5.613109e+001
      endloop
   endfacet
   facet normal -1.876802e-001 -2.278785e-001 9.554306e-001
      outer loop
         vertex 5.620976e+001 1.011808e+002 5.625336e+001
         vertex 5.595039e+001 1.008816e+002 5.613109e+001
         vertex 5.599183e+001 1.008502e+002 5.613176e+001
      endloop
   endfacet
   facet normal -1.876157e-001 -2.279086e-001 9.554361e-001
      outer loop
         vertex 5.599183e+001 1.008502e+002 5.613176e+001
         vertex 5.603691e+001 1.008245e+002 5.613447e+001
         vertex 5.620976e+001 1.011808e+002 5.625336e+001
      endloop
   endfacet
   facet normal -1.875465e-001 -2.279327e-001 9.554439e-001
      outer loop
         vertex 5.620976e+001 1.011808e+002 5.625336e+001
         vertex 5.603691e+001 1.008245e+002 5.613447e+001
         vertex 5.608464e+001 1.008051e+002 5.613921e+001
      endloop
   endfacet
   facet normal -1.874733e-001 -2.279504e-001 9.554540e-001
      outer loop
         vertex 5.620976e+001 1.011808e+002 5.625336e+001
         vertex 5.608464e+001 1.008051e+002 5.613921e+001
         vertex 5.613523e+001 1.007919e+002 5.614600e+001
      endloop
   endfacet
   facet normal -1.873974e-001 -2.279615e-001 9.554663e-001
      outer loop
         vertex 5.613523e+001 1.007919e+002 5.614600e+001
         vertex 5.618641e+001 1.007855e+002 5.615450e+001
         vertex 5.620976e+001 1.011808e+002 5.625336e+001
      endloop
   endfacet
   facet normal -1.873207e-001 -2.279657e-001 9.554803e-001
      outer loop
         vertex 5.620976e+001 1.011808e+002 5.625336e+001
         vertex 5.618641e+001 1.007855e+002 5.615450e+001
         vertex 5.623825e+001 1.007858e+002 5.616475e+001
      endloop
   endfacet
   facet normal -1.872495e-001 -2.279636e-001 9.554948e-001
      outer loop
         vertex 5.620976e+001 1.011808e+002 5.625336e+001
         vertex 5.623825e+001 1.007858e+002 5.616475e+001
         vertex 5.628186e+001 1.007915e+002 5.617464e+001
      endloop
   endfacet
   facet normal -1.874701e-001 -2.271667e-001 9.556413e-001
      outer loop
         vertex 5.613766e+001 1.015702e+002 5.633182e+001
         vertex 5.608647e+001 1.015572e+002 5.631869e+001
         vertex 5.620976e+001 1.011808e+002 5.625336e+001
      endloop
   endfacet
   facet normal -1.875444e-001 -2.271823e-001 9.556230e-001
      outer loop
         vertex 5.620976e+001 1.011808e+002 5.625336e+001
         vertex 5.608647e+001 1.015572e+002 5.631869e+001
         vertex 5.603792e+001 1.015376e+002 5.630451e+001
      endloop
   endfacet
   facet normal -1.876148e-001 -2.272047e-001 9.556038e-001
      outer loop
         vertex 5.620976e+001 1.011808e+002 5.625336e+001
         vertex 5.603792e+001 1.015376e+002 5.630451e+001
         vertex 5.599207e+001 1.015116e+002 5.628931e+001
      endloop
   endfacet
   facet normal -1.876802e-001 -2.272334e-001 9.555842e-001
      outer loop
         vertex 5.599207e+001 1.015116e+002 5.628931e+001
         vertex 5.595018e+001 1.014799e+002 5.627355e+001
         vertex 5.620976e+001 1.011808e+002 5.625336e+001
      endloop
   endfacet
   facet normal -1.877392e-001 -2.272678e-001 9.555644e-001
      outer loop
         vertex 5.620976e+001 1.011808e+002 5.625336e+001
         vertex 5.595018e+001 1.014799e+002 5.627355e+001
         vertex 5.591280e+001 1.014428e+002 5.625739e+001
      endloop
   endfacet
   facet normal -1.877912e-001 -2.273076e-001 9.555447e-001
      outer loop
         vertex 5.620976e+001 1.011808e+002 5.625336e+001
         vertex 5.591280e+001 1.014428e+002 5.625739e+001
         vertex 5.588045e+001 1.014007e+002 5.624100e+001
      endloop
   endfacet
   facet normal -1.878351e-001 -2.273522e-001 9.555255e-001
      outer loop
         vertex 5.588045e+001 1.014007e+002 5.624100e+001
         vertex 5.585392e+001 1.013547e+002 5.622483e+001
         vertex 5.620976e+001 1.011808e+002 5.625336e+001
      endloop
   endfacet
   facet normal -1.878697e-001 -2.274003e-001 9.555073e-001
      outer loop
         vertex 5.620976e+001 1.011808e+002 5.625336e+001
         vertex 5.585392e+001 1.013547e+002 5.622483e+001
         vertex 5.583403e+001 1.013059e+002 5.620931e+001
      endloop
   endfacet
   facet normal -1.878945e-001 -2.274513e-001 9.554902e-001
      outer loop
         vertex 5.620976e+001 1.011808e+002 5.625336e+001
         vertex 5.583403e+001 1.013059e+002 5.620931e+001
         vertex 5.582066e+001 1.012543e+002 5.619439e+001
      endloop
   endfacet
   facet normal -1.879092e-001 -2.275046e-001 9.554746e-001
      outer loop
         vertex 5.582066e+001 1.012543e+002 5.619439e+001
         vertex 5.581426e+001 1.012014e+002 5.618054e+001
         vertex 5.620976e+001 1.011808e+002 5.625336e+001
      endloop
   endfacet
   facet normal -1.879134e-001 -2.275585e-001 9.554610e-001
      outer loop
         vertex 5.620976e+001 1.011808e+002 5.625336e+001
         vertex 5.581426e+001 1.012014e+002 5.618054e+001
         vertex 5.581505e+001 1.011490e+002 5.616823e+001
      endloop
   endfacet
   facet normal -1.879070e-001 -2.276122e-001 9.554495e-001
      outer loop
         vertex 5.620976e+001 1.011808e+002 5.625336e+001
         vertex 5.581505e+001 1.011490e+002 5.616823e+001
         vertex 5.582286e+001 1.010965e+002 5.615725e+001
      endloop
   endfacet
   facet normal -1.862997e-001 -2.270322e-001 9.559021e-001
      outer loop
         vertex 5.613766e+001 1.015702e+002 5.633182e+001
         vertex 5.620976e+001 1.011808e+002 5.625336e+001
         vertex 5.765741e+001 1.018517e+002 5.669391e+001
      endloop
   endfacet
   facet normal -1.851307e-001 -2.273119e-001 9.560627e-001
      outer loop
         vertex 5.765741e+001 1.018517e+002 5.669391e+001
         vertex 5.620976e+001 1.011808e+002 5.625336e+001
         vertex 5.770632e+001 1.010553e+002 5.651363e+001
      endloop
   endfacet
   facet normal -1.840153e-001 -2.269787e-001 9.563572e-001
      outer loop
         vertex 5.765741e+001 1.018517e+002 5.669391e+001
         vertex 5.770632e+001 1.010553e+002 5.651363e+001
         vertex 5.770626e+001 1.018607e+002 5.670535e+001
      endloop
   endfacet
   facet normal -1.837711e-001 -2.273635e-001 9.563127e-001
      outer loop
         vertex 5.770626e+001 1.018607e+002 5.670535e+001
         vertex 5.770632e+001 1.010553e+002 5.651363e+001
         vertex 5.798513e+001 1.011069e+002 5.657998e+001
      endloop
   endfacet
   facet normal -1.825401e-001 -2.268108e-001 9.566796e-001
      outer loop
         vertex 5.770626e+001 1.018607e+002 5.670535e+001
         vertex 5.798513e+001 1.011069e+002 5.657998e+001
         vertex 5.935847e+001 1.021667e+002 5.709232e+001
      endloop
   endfacet
   facet normal -1.811022e-001 -2.270596e-001 9.568939e-001
      outer loop
         vertex 5.935847e+001 1.021667e+002 5.709232e+001
         vertex 5.798513e+001 1.011069e+002 5.657998e+001
         vertex 5.963573e+001 1.014126e+002 5.696572e+001
      endloop
   endfacet
   facet normal -1.798719e-001 -2.265065e-001 9.572570e-001
      outer loop
         vertex 5.935847e+001 1.021667e+002 5.709232e+001
         vertex 5.963573e+001 1.014126e+002 5.696572e+001
         vertex 5.963580e+001 1.022181e+002 5.715609e+001
      endloop
   endfacet
   facet normal -1.796233e-001 -2.268907e-001 9.572126e-001
      outer loop
         vertex 5.963580e+001 1.022181e+002 5.715609e+001
         vertex 5.963573e+001 1.014126e+002 5.696572e+001
         vertex 5.969209e+001 1.014230e+002 5.697889e+001
      endloop
   endfacet
   facet normal -1.785060e-001 -2.265569e-001 9.575007e-001
      outer loop
         vertex 5.963580e+001 1.022181e+002 5.715609e+001
         vertex 5.969209e+001 1.014230e+002 5.697889e+001
         vertex 6.113528e+001 1.020930e+002 5.740574e+001
      endloop
   endfacet
   facet normal -1.773348e-001 -2.268357e-001 9.576523e-001
      outer loop
         vertex 6.113528e+001 1.020930e+002 5.740574e+001
         vertex 5.969209e+001 1.014230e+002 5.697889e+001
         vertex 6.120737e+001 1.017037e+002 5.732690e+001
      endloop
   endfacet
   facet normal -1.761672e-001 -2.267001e-001 9.578999e-001
      outer loop
         vertex 6.113528e+001 1.020930e+002 5.740574e+001
         vertex 6.120737e+001 1.017037e+002 5.732690e+001
         vertex 6.125857e+001 1.017167e+002 5.733939e+001
      endloop
   endfacet
endsolid