solid ¼öÁ÷_1
   facet normal 0.000000e+000 0.000000e+000 1.000000e+000
      outer loop
         vertex 1.100000e+002 5.000000e+001 1.000000e+001
         vertex 6.000000e+001 5.000000e+001 1.000000e+001
         vertex 1.100000e+002 0.000000e+000 1.000000e+001
      endloop
   endfacet
   facet normal 0.000000e+000 0.000000e+000 1.000000e+000
      outer loop
         vertex 1.100000e+002 0.000000e+000 1.000000e+001
         vertex 6.000000e+001 5.000000e+001 1.000000e+001
         vertex 6.000000e+001 0.000000e+000 1.000000e+001
      endloop
   endfacet
   facet normal 1.000000e+000 0.000000e+000 0.000000e+000
      outer loop
         vertex 1.100000e+002 5.000000e+001 0.000000e+000
         vertex 1.100000e+002 5.000000e+001 1.000000e+001
         vertex 1.100000e+002 0.000000e+000 0.000000e+000
      endloop
   endfacet
   facet normal 1.000000e+000 0.000000e+000 0.000000e+000
      outer loop
         vertex 1.100000e+002 0.000000e+000 0.000000e+000
         vertex 1.100000e+002 5.000000e+001 1.000000e+001
         vertex 1.100000e+002 0.000000e+000 1.000000e+001
      endloop
   endfacet
   facet normal 0.000000e+000 0.000000e+000 -1.000000e+000
      outer loop
         vertex 0.000000e+000 5.000000e+001 0.000000e+000
         vertex 1.100000e+002 5.000000e+001 0.000000e+000
         vertex 0.000000e+000 0.000000e+000 0.000000e+000
      endloop
   endfacet
   facet normal 0.000000e+000 0.000000e+000 -1.000000e+000
      outer loop
         vertex 0.000000e+000 0.000000e+000 0.000000e+000
         vertex 1.100000e+002 5.000000e+001 0.000000e+000
         vertex 1.100000e+002 0.000000e+000 0.000000e+000
      endloop
   endfacet
   facet normal -1.000000e+000 0.000000e+000 0.000000e+000
      outer loop
         vertex 0.000000e+000 5.000000e+001 1.000000e+001
         vertex 0.000000e+000 5.000000e+001 0.000000e+000
         vertex 0.000000e+000 0.000000e+000 1.000000e+001
      endloop
   endfacet
   facet normal -1.000000e+000 0.000000e+000 0.000000e+000
      outer loop
         vertex 0.000000e+000 0.000000e+000 1.000000e+001
         vertex 0.000000e+000 5.000000e+001 0.000000e+000
         vertex 0.000000e+000 0.000000e+000 0.000000e+000
      endloop
   endfacet
   facet normal 0.000000e+000 0.000000e+000 1.000000e+000
      outer loop
         vertex 5.000000e+001 5.000000e+001 1.000000e+001
         vertex 0.000000e+000 5.000000e+001 1.000000e+001
         vertex 5.000000e+001 0.000000e+000 1.000000e+001
      endloop
   endfacet
   facet normal 0.000000e+000 0.000000e+000 1.000000e+000
      outer loop
         vertex 5.000000e+001 0.000000e+000 1.000000e+001
         vertex 0.000000e+000 5.000000e+001 1.000000e+001
         vertex 0.000000e+000 0.000000e+000 1.000000e+001
      endloop
   endfacet
   facet normal -1.000000e+000 0.000000e+000 0.000000e+000
      outer loop
         vertex 5.000000e+001 5.000000e+001 2.000000e+001
         vertex 5.000000e+001 5.000000e+001 1.000000e+001
         vertex 5.000000e+001 0.000000e+000 2.000000e+001
      endloop
   endfacet
   facet normal -1.000000e+000 0.000000e+000 0.000000e+000
      outer loop
         vertex 5.000000e+001 0.000000e+000 2.000000e+001
         vertex 5.000000e+001 5.000000e+001 1.000000e+001
         vertex 5.000000e+001 0.000000e+000 1.000000e+001
      endloop
   endfacet
   facet normal 0.000000e+000 0.000000e+000 1.000000e+000
      outer loop
         vertex 6.000000e+001 5.000000e+001 2.000000e+001
         vertex 5.000000e+001 5.000000e+001 2.000000e+001
         vertex 6.000000e+001 0.000000e+000 2.000000e+001
      endloop
   endfacet
   facet normal 0.000000e+000 0.000000e+000 1.000000e+000
      outer loop
         vertex 6.000000e+001 0.000000e+000 2.000000e+001
         vertex 5.000000e+001 5.000000e+001 2.000000e+001
         vertex 5.000000e+001 0.000000e+000 2.000000e+001
      endloop
   endfacet
   facet normal 1.000000e+000 0.000000e+000 0.000000e+000
      outer loop
         vertex 6.000000e+001 5.000000e+001 1.000000e+001
         vertex 6.000000e+001 5.000000e+001 2.000000e+001
         vertex 6.000000e+001 0.000000e+000 1.000000e+001
      endloop
   endfacet
   facet normal 1.000000e+000 0.000000e+000 0.000000e+000
      outer loop
         vertex 6.000000e+001 0.000000e+000 1.000000e+001
         vertex 6.000000e+001 5.000000e+001 2.000000e+001
         vertex 6.000000e+001 0.000000e+000 2.000000e+001
      endloop
   endfacet
   facet normal 0.000000e+000 1.000000e+000 0.000000e+000
      outer loop
         vertex 1.100000e+002 5.000000e+001 0.000000e+000
         vertex 0.000000e+000 5.000000e+001 0.000000e+000
         vertex 5.000000e+001 5.000000e+001 1.000000e+001
      endloop
   endfacet
   facet normal 0.000000e+000 1.000000e+000 0.000000e+000
      outer loop
         vertex 5.000000e+001 5.000000e+001 1.000000e+001
         vertex 0.000000e+000 5.000000e+001 0.000000e+000
         vertex 0.000000e+000 5.000000e+001 1.000000e+001
      endloop
   endfacet
   facet normal 0.000000e+000 1.000000e+000 0.000000e+000
      outer loop
         vertex 1.100000e+002 5.000000e+001 1.000000e+001
         vertex 1.100000e+002 5.000000e+001 0.000000e+000
         vertex 6.000000e+001 5.000000e+001 1.000000e+001
      endloop
   endfacet
   facet normal 0.000000e+000 1.000000e+000 0.000000e+000
      outer loop
         vertex 6.000000e+001 5.000000e+001 1.000000e+001
         vertex 1.100000e+002 5.000000e+001 0.000000e+000
         vertex 5.000000e+001 5.000000e+001 1.000000e+001
      endloop
   endfacet
   facet normal 0.000000e+000 1.000000e+000 0.000000e+000
      outer loop
         vertex 6.000000e+001 5.000000e+001 1.000000e+001
         vertex 5.000000e+001 5.000000e+001 1.000000e+001
         vertex 6.000000e+001 5.000000e+001 2.000000e+001
      endloop
   endfacet
   facet normal 0.000000e+000 1.000000e+000 0.000000e+000
      outer loop
         vertex 6.000000e+001 5.000000e+001 2.000000e+001
         vertex 5.000000e+001 5.000000e+001 1.000000e+001
         vertex 5.000000e+001 5.000000e+001 2.000000e+001
      endloop
   endfacet
   facet normal 0.000000e+000 -1.000000e+000 0.000000e+000
      outer loop
         vertex 0.000000e+000 0.000000e+000 0.000000e+000
         vertex 1.100000e+002 0.000000e+000 0.000000e+000
         vertex 6.000000e+001 0.000000e+000 1.000000e+001
      endloop
   endfacet
   facet normal 0.000000e+000 -1.000000e+000 0.000000e+000
      outer loop
         vertex 6.000000e+001 0.000000e+000 1.000000e+001
         vertex 1.100000e+002 0.000000e+000 0.000000e+000
         vertex 1.100000e+002 0.000000e+000 1.000000e+001
      endloop
   endfacet
   facet normal 0.000000e+000 -1.000000e+000 0.000000e+000
      outer loop
         vertex 0.000000e+000 0.000000e+000 1.000000e+001
         vertex 0.000000e+000 0.000000e+000 0.000000e+000
         vertex 5.000000e+001 0.000000e+000 1.000000e+001
      endloop
   endfacet
   facet normal 0.000000e+000 -1.000000e+000 0.000000e+000
      outer loop
         vertex 5.000000e+001 0.000000e+000 1.000000e+001
         vertex 0.000000e+000 0.000000e+000 0.000000e+000
         vertex 6.000000e+001 0.000000e+000 1.000000e+001
      endloop
   endfacet
   facet normal 0.000000e+000 -1.000000e+000 0.000000e+000
      outer loop
         vertex 5.000000e+001 0.000000e+000 1.000000e+001
         vertex 6.000000e+001 0.000000e+000 1.000000e+001
         vertex 5.000000e+001 0.000000e+000 2.000000e+001
      endloop
   endfacet
   facet normal 0.000000e+000 -1.000000e+000 0.000000e+000
      outer loop
         vertex 5.000000e+001 0.000000e+000 2.000000e+001
         vertex 6.000000e+001 0.000000e+000 1.000000e+001
         vertex 6.000000e+001 0.000000e+000 2.000000e+001
      endloop
   endfacet
   facet normal 0.000000e+000 0.000000e+000 1.000000e+000
      outer loop
         vertex 0.000000e+000 2.500000e+001 1.000000e+001
         vertex 5.000000e+001 2.500000e+001 1.000000e+001
         vertex 0.000000e+000 2.501000e+001 1.000000e+001
      endloop
   endfacet
   facet normal 0.000000e+000 0.000000e+000 1.000000e+000
      outer loop
         vertex 0.000000e+000 2.501000e+001 1.000000e+001
         vertex 5.000000e+001 2.500000e+001 1.000000e+001
         vertex 5.000000e+001 2.501000e+001 1.000000e+001
      endloop
   endfacet
   facet normal -1.000000e+000 0.000000e+000 0.000000e+000
      outer loop
         vertex 5.000000e+001 2.500000e+001 1.000000e+001
         vertex 5.000000e+001 2.500000e+001 2.000000e+001
         vertex 5.000000e+001 2.501000e+001 1.000000e+001
      endloop
   endfacet
   facet normal -1.000000e+000 0.000000e+000 0.000000e+000
      outer loop
         vertex 5.000000e+001 2.501000e+001 1.000000e+001
         vertex 5.000000e+001 2.500000e+001 2.000000e+001
         vertex 5.000000e+001 2.501000e+001 2.000000e+001
      endloop
   endfacet
   facet normal 0.000000e+000 0.000000e+000 1.000000e+000
      outer loop
         vertex 5.000000e+001 2.500000e+001 2.000000e+001
         vertex 6.000000e+001 2.500000e+001 2.000000e+001
         vertex 5.000000e+001 2.501000e+001 2.000000e+001
      endloop
   endfacet
   facet normal 0.000000e+000 0.000000e+000 1.000000e+000
      outer loop
         vertex 5.000000e+001 2.501000e+001 2.000000e+001
         vertex 6.000000e+001 2.500000e+001 2.000000e+001
         vertex 6.000000e+001 2.501000e+001 2.000000e+001
      endloop
   endfacet
   facet normal 1.000000e+000 0.000000e+000 0.000000e+000
      outer loop
         vertex 6.000000e+001 2.500000e+001 2.000000e+001
         vertex 6.000000e+001 2.500000e+001 1.000000e+001
         vertex 6.000000e+001 2.501000e+001 2.000000e+001
      endloop
   endfacet
   facet normal 1.000000e+000 0.000000e+000 0.000000e+000
      outer loop
         vertex 6.000000e+001 2.501000e+001 2.000000e+001
         vertex 6.000000e+001 2.500000e+001 1.000000e+001
         vertex 6.000000e+001 2.501000e+001 1.000000e+001
      endloop
   endfacet
   facet normal 0.000000e+000 0.000000e+000 1.000000e+000
      outer loop
         vertex 6.000000e+001 2.500000e+001 1.000000e+001
         vertex 1.100000e+002 2.500000e+001 1.000000e+001
         vertex 6.000000e+001 2.501000e+001 1.000000e+001
      endloop
   endfacet
   facet normal 0.000000e+000 0.000000e+000 1.000000e+000
      outer loop
         vertex 6.000000e+001 2.501000e+001 1.000000e+001
         vertex 1.100000e+002 2.500000e+001 1.000000e+001
         vertex 1.100000e+002 2.501000e+001 1.000000e+001
      endloop
   endfacet
endsolid